<?xml version="1.0" encoding="utf-8"?>
<!-- Generator: Adobe Illustrator 26.3.1, SVG Export Plug-In . SVG Version: 6.00 Build 0)  -->
<svg version="1.1" id="Layer_1" xmlns="http://www.w3.org/2000/svg" xmlns:xlink="http://www.w3.org/1999/xlink" x="0px" y="0px"
	 viewBox="0 0 120 40" style="enable-background:new 0 0 120 40;" xml:space="preserve">
<style type="text/css">
	.st0{fill:none;stroke:#A6A6A6;}
	.st1{fill:#FFFFFF;}
</style>
<path d="M6,0.5h108c3.04,0,5.5,2.46,5.5,5.5v28c0,3.04-2.46,5.5-5.5,5.5H6c-3.04,0-5.5-2.46-5.5-5.5V6C0.5,2.96,2.96,0.5,6,0.5z"/>
<path class="st0" d="M6,0.5h108c3.04,0,5.5,2.46,5.5,5.5v28c0,3.04-2.46,5.5-5.5,5.5H6c-3.04,0-5.5-2.46-5.5-5.5V6
	C0.5,2.96,2.96,0.5,6,0.5z"/>
<path class="st1" d="M24.7,20.76c0.01-0.92,0.26-1.82,0.73-2.62c0.47-0.8,1.13-1.47,1.93-1.95c-0.51-0.71-1.18-1.3-1.96-1.71
	c-0.78-0.41-1.65-0.64-2.54-0.67c-1.9-0.19-3.73,1.11-4.7,1.11c-0.98,0-2.47-1.09-4.07-1.06c-1.04,0.03-2.05,0.33-2.93,0.85
	s-1.61,1.27-2.12,2.15c-2.18,3.69-0.55,9.11,1.54,12.1c1.05,1.46,2.27,3.09,3.87,3.03c1.57-0.06,2.15-0.97,4.04-0.97
	c1.87,0,2.42,0.97,4.05,0.94c1.68-0.03,2.74-1.47,3.75-2.94c0.75-1.04,1.33-2.19,1.71-3.41c-0.98-0.4-1.81-1.08-2.4-1.94
	C25.02,22.81,24.71,21.8,24.7,20.76z"/>
<path class="st1" d="M21.62,11.85c0.92-1.07,1.37-2.45,1.26-3.85c-1.4,0.14-2.69,0.8-3.62,1.83c-0.45,0.5-0.8,1.09-1.02,1.73
	c-0.22,0.64-0.31,1.31-0.27,1.98c0.7,0.01,1.39-0.14,2.03-0.43C20.63,12.81,21.18,12.38,21.62,11.85z"/>
<path class="st1" d="M36.79,8.5h2.07c1.79,0,2.66,1.06,2.66,2.99c0,1.93-0.88,3.01-2.66,3.01h-2.07V8.5z M37.79,9.34v4.32h0.96
	c1.19,0,1.74-0.72,1.74-2.15c0-1.45-0.56-2.17-1.74-2.17H37.79z M44.67,9.78c1.21,0,2.06,0.79,2.06,2.09v0.6
	c0,1.35-0.85,2.11-2.06,2.11c-1.23,0-2.07-0.75-2.07-2.1v-0.6C42.6,10.6,43.46,9.78,44.67,9.78z M44.68,10.56
	c-0.69,0-1.09,0.58-1.09,1.36v0.52c0,0.78,0.37,1.35,1.09,1.35c0.71,0,1.08-0.57,1.08-1.35v-0.52
	C45.76,11.14,45.37,10.56,44.68,10.56z M53.9,9.85l-1.22,4.65h-0.99l-0.97-3.43h-0.03l-0.95,3.43h-1l-1.27-4.65h1.05l0.75,3.54h0.04
	l0.94-3.54h0.92l0.96,3.54h0.04l0.76-3.54H53.9z M54.87,14.5V9.85h0.96v0.83h0.05c0.12-0.36,0.46-0.91,1.4-0.91
	c0.94,0,1.56,0.52,1.56,1.58v3.14h-0.98v-2.85c0-0.71-0.37-1.03-0.92-1.03c-0.72,0-1.1,0.55-1.1,1.31v2.58H54.87z M60.31,14.5V8.19
	h0.98v6.31H60.31z M64.63,9.78c1.21,0,2.06,0.79,2.06,2.09v0.6c0,1.35-0.85,2.11-2.06,2.11c-1.23,0-2.07-0.75-2.07-2.1v-0.6
	C62.56,10.6,63.42,9.78,64.63,9.78z M64.64,10.56c-0.69,0-1.09,0.58-1.09,1.36v0.52c0,0.78,0.37,1.35,1.09,1.35
	c0.71,0,1.08-0.57,1.08-1.35v-0.52C65.72,11.14,65.33,10.56,64.64,10.56z M69.22,14.57c-0.9,0-1.52-0.55-1.52-1.42
	c0-0.82,0.57-1.38,1.64-1.38h1.17v-0.44c0-0.53-0.34-0.78-0.87-0.78c-0.53,0-0.76,0.22-0.84,0.53h-0.93c0.06-0.78,0.64-1.3,1.8-1.3
	c0.99,0,1.81,0.41,1.81,1.57v3.15h-0.93v-0.6h-0.04C70.31,14.25,69.91,14.57,69.22,14.57z M69.53,13.81c0.55,0,0.99-0.38,0.99-0.88
	v-0.5H69.5c-0.57,0-0.82,0.29-0.82,0.67C68.68,13.59,69.09,13.81,69.53,13.81z M74.5,9.79c0.65,0,1.16,0.29,1.34,0.76h0.05V8.19
	h0.98v6.31h-0.95v-0.74h-0.05c-0.14,0.47-0.7,0.8-1.38,0.8c-1.07,0-1.76-0.76-1.76-1.99v-0.8C72.72,10.55,73.43,9.79,74.5,9.79z
	 M74.77,10.59c-0.65,0-1.05,0.48-1.05,1.33v0.51c0,0.85,0.41,1.33,1.08,1.33c0.66,0,1.09-0.48,1.09-1.27v-0.7
	C75.88,11.07,75.41,10.59,74.77,10.59z M82.21,9.78c1.21,0,2.06,0.79,2.06,2.09v0.6c0,1.35-0.85,2.11-2.06,2.11
	c-1.23,0-2.07-0.75-2.07-2.1v-0.6C80.14,10.6,81,9.78,82.21,9.78z M82.22,10.56c-0.69,0-1.09,0.58-1.09,1.36v0.52
	c0,0.78,0.37,1.35,1.09,1.35c0.71,0,1.08-0.57,1.08-1.35v-0.52C83.29,11.14,82.91,10.56,82.22,10.56z M85.53,14.5V9.85h0.96v0.83
	h0.05c0.12-0.36,0.46-0.91,1.4-0.91c0.94,0,1.56,0.52,1.56,1.58v3.14h-0.98v-2.85c0-0.71-0.37-1.03-0.92-1.03
	c-0.72,0-1.1,0.55-1.1,1.31v2.58H85.53z M93.27,9.89V8.73h0.95v1.16h1.04v0.76h-1.04v2.47c0,0.51,0.19,0.65,0.71,0.65
	c0.13,0,0.31-0.01,0.38-0.02v0.75c-0.08,0.01-0.4,0.04-0.62,0.04c-1.13,0-1.44-0.4-1.44-1.34v-2.54h-0.71V9.89H93.27z M96.5,14.5
	V8.19h0.97v2.5h0.05c0.1-0.33,0.48-0.91,1.41-0.91c0.91,0,1.55,0.52,1.55,1.58v3.13h-0.97v-2.85c0-0.71-0.39-1.04-0.94-1.04
	c-0.7,0-1.09,0.55-1.09,1.31v2.58H96.5z M103.75,14.58c-1.27,0-2.05-0.78-2.05-2.09v-0.63c0-1.32,0.86-2.09,1.99-2.09
	c1.16,0,1.99,0.81,1.99,2.09v0.54h-3.01v0.23c0,0.67,0.4,1.16,1.08,1.16c0.51,0,0.86-0.24,0.93-0.53h0.95
	C105.57,13.8,105.01,14.58,103.75,14.58z M102.67,11.77h2.06v-0.06c0-0.7-0.41-1.16-1.03-1.16c-0.62,0-1.03,0.47-1.03,1.16V11.77z"
	/>
<path class="st1" d="M38.21,30.5h-2.03l4.13-12h2.23l4.12,12h-2.11l-1.06-3.32h-4.21L38.21,30.5z M41.43,20.58h-0.08l-1.63,5.07
	h3.31L41.43,20.58z M52.26,30.63c-1.2,0-2.12-0.57-2.61-1.42h-0.07v4.38h-1.95V21.21h1.9v1.36h0.07c0.51-0.89,1.46-1.49,2.71-1.49
	c2.08,0,3.57,1.57,3.57,4.35v0.83C55.88,29.02,54.41,30.63,52.26,30.63z M51.82,29.02c1.24,0,2.08-0.99,2.08-2.87v-0.65
	c0-1.8-0.79-2.83-2.12-2.83c-1.36,0-2.21,1.11-2.21,2.82v0.66C49.57,27.92,50.43,29.02,51.82,29.02z M62.18,30.63
	c-1.2,0-2.12-0.57-2.61-1.42H59.5v4.38h-1.95V21.21h1.9v1.36h0.07c0.51-0.89,1.46-1.49,2.71-1.49c2.08,0,3.57,1.57,3.57,4.35v0.83
	C65.8,29.02,64.33,30.63,62.18,30.63z M61.73,29.02c1.24,0,2.08-0.99,2.08-2.87v-0.65c0-1.8-0.79-2.83-2.12-2.83
	c-1.36,0-2.21,1.11-2.21,2.82v0.66C59.48,27.92,60.35,29.02,61.73,29.02z M69.84,27.17h1.95c0.09,1.04,1,1.92,2.7,1.92
	c1.56,0,2.48-0.73,2.48-1.86c0-0.91-0.62-1.41-1.9-1.71l-1.97-0.49c-1.55-0.36-2.94-1.28-2.94-3.23c0-2.29,2-3.55,4.33-3.55
	s4.27,1.26,4.32,3.5H76.9c-0.09-1.02-0.87-1.86-2.43-1.86c-1.37,0-2.3,0.65-2.3,1.77c0,0.78,0.54,1.34,1.66,1.6l1.96,0.48
	c1.8,0.44,3.17,1.29,3.17,3.33c0,2.36-1.91,3.68-4.62,3.68C71,30.74,69.88,28.79,69.84,27.17z M81.34,21.21v-2.26h1.92v2.26h1.81
	v1.56h-1.81v4.96c0,1.01,0.38,1.29,1.42,1.29c0.17,0,0.33,0,0.44-0.02v1.49c-0.16,0.03-0.53,0.06-0.92,0.06
	c-2.26,0-2.88-0.81-2.88-2.67v-5.12h-1.28v-1.56H81.34z M90.34,21.05c2.67,0,4.12,1.88,4.12,4.41v0.75c0,2.62-1.44,4.45-4.12,4.45
	c-2.68,0-4.14-1.83-4.14-4.45v-0.75C86.2,22.94,87.66,21.05,90.34,21.05z M90.34,22.62c-1.45,0-2.17,1.19-2.17,2.87v0.71
	c0,1.66,0.71,2.88,2.17,2.88s2.16-1.21,2.16-2.88v-0.71C92.5,23.79,91.79,22.62,90.34,22.62z M96.11,30.5v-9.29h1.95v1.22h0.07
	c0.24-0.58,0.93-1.35,2.22-1.35c0.26,0,0.47,0.02,0.66,0.05v1.72c-0.17-0.04-0.51-0.07-0.83-0.07c-1.56,0-2.09,0.97-2.09,2.21v5.5
	H96.11z M105.74,30.66c-2.49,0-4.07-1.64-4.07-4.39v-0.94c0-2.59,1.55-4.27,3.99-4.27c2.48,0,3.97,1.74,3.97,4.36v0.89h-6.04v0.22
	c0,1.56,0.84,2.6,2.17,2.6c0.99,0,1.67-0.49,1.91-1.29h1.85C109.25,29.33,108.04,30.66,105.74,30.66z M103.6,24.94h4.13v-0.02
	c0-1.32-0.82-2.36-2.06-2.36c-1.26,0-2.07,1.04-2.07,2.36V24.94z"/>
</svg>
