<?xml version="1.0" encoding="utf-8"?>
<!-- Generator: Adobe Illustrator 26.3.1, SVG Export Plug-In . SVG Version: 6.00 Build 0)  -->
<svg version="1.1" id="Layer_1" xmlns="http://www.w3.org/2000/svg" xmlns:xlink="http://www.w3.org/1999/xlink" x="0px" y="0px"
	 viewBox="0 0 300 80" style="enable-background:new 0 0 300 80;" xml:space="preserve">
<style type="text/css">
	.st0{fill:#0001FF;}
	.st1{fill:#F9F9F9;}
</style>
<path class="st0" d="M41.99,16H28.11c-9.43,0-17.04,7.64-17.04,17.04v13.91c0,9.43,7.64,17.04,17.04,17.04h13.91
	c9.43,0,17.04-7.64,17.04-17.04v-13.9C59.06,23.65,51.41,16,41.99,16z M31.1,43.12c-0.03,3.65,0,7.29,0,10.91c0,0.35,0,0.68,0,1.13
	c-0.27,0.03-0.43,0.05-0.59,0.05c-2.59,0-5.19,0-7.91,0c0-0.38,0-0.7,0-1.03c0-3.56,0-7.16,0-10.72
	c0.03-10.56,8.08-18.61,18.61-18.66c2.05,0,4.11,0,6.21,0c0,2.86,0,5.64,0,8.51c-0.22,0.03-0.49,0.05-0.76,0.05
	c-1.92,0-3.86,0-5.78,0C35.45,33.37,31.16,37.64,31.1,43.12z M40.85,49.82c-3.65-0.03-6.62-3.02-6.62-6.67s3-6.64,6.62-6.64
	c3.7,0,6.67,2.97,6.64,6.7C47.47,46.87,44.5,49.84,40.85,49.82z"/>
<g>
	<path class="st1" d="M64.86,55.76V29.08c0-3.19,2.59-5.75,5.75-5.75H82.6v6.35H71.64v8.64h10.53v6.35H71.64v11.1L64.86,55.76
		L64.86,55.76z"/>
	<path class="st1" d="M87.06,23.3h6.27v5.59h-6.27V23.3z M87.06,55.76V31.45h6.27v24.31C93.33,55.76,87.06,55.76,87.06,55.76z"/>
	<path class="st1" d="M111.07,31.45v6.27h-3.94v18.01h-6.27V37.72h-3.97v-6.27h3.97v-5.51h6.27v5.51H111.07z"/>
	<path class="st1" d="M131.6,28.97c-3.32,0-5.97,0.97-7.91,2.94c-1.94,1.94-2.92,4.32-2.92,7.1c0,2.86,0.97,5.43,2.94,7.7
		s4.62,3.4,7.97,3.4c2.86,0,5.59-0.78,8.21-2.38v7.02c-2.78,1.13-5.56,1.7-8.37,1.7c-5.02,0-9.24-1.65-12.67-4.97
		s-5.13-7.29-5.13-11.94s1.7-8.62,5.13-11.94s7.64-4.97,12.69-4.97c2.81,0,5.59,0.57,8.37,1.7v6.97
		C137.59,29.75,134.84,28.97,131.6,28.97z"/>
	<path class="st1" d="M164.98,52.73c-2.51,2.48-5.56,3.73-9.13,3.73c-3.56,0-6.59-1.24-9.13-3.73c-2.51-2.48-3.78-5.51-3.78-9.13
		c0-3.59,1.27-6.64,3.78-9.13c2.51-2.48,5.56-3.73,9.13-3.73c3.56,0,6.59,1.24,9.13,3.73c2.51,2.48,3.78,5.51,3.78,9.13
		S167.49,50.25,164.98,52.73z M151.4,48.36c1.22,1.24,2.7,1.89,4.48,1.89s3.29-0.62,4.51-1.89c1.22-1.24,1.84-2.84,1.84-4.73
		s-0.62-3.46-1.84-4.7s-2.73-1.86-4.51-1.86s-3.29,0.62-4.48,1.86c-1.22,1.24-1.81,2.81-1.81,4.7
		C149.56,45.52,150.18,47.09,151.4,48.36z"/>
	<path class="st1" d="M200.5,30.78c2.7,0,4.92,0.95,6.56,2.84c1.67,1.89,2.51,4.54,2.51,7.91v14.21h-6.27V42.01
		c0-1.67-0.41-2.97-1.19-3.89s-1.84-1.38-3.16-1.38c-1.3,0-2.35,0.43-3.21,1.27s-1.3,2.19-1.3,4v13.72h-6.32V42.01
		c0-1.67-0.41-2.97-1.19-3.89s-1.84-1.38-3.16-1.38c-1.3,0-2.35,0.43-3.21,1.27s-1.3,2.19-1.3,4v13.72H173v-24.3h4.27l0.84,2.3
		c1.92-1.97,4.35-2.97,7.24-2.97c3.11,0,5.56,1.22,7.37,3.67C194.63,31.99,197.23,30.78,200.5,30.78z"/>
	<path class="st1" d="M242.82,30.78c2.7,0,4.92,0.95,6.56,2.84c1.67,1.89,2.51,4.54,2.51,7.91v14.21h-6.27V42.01
		c0-1.67-0.41-2.97-1.19-3.89s-1.84-1.38-3.16-1.38c-1.3,0-2.35,0.43-3.21,1.27s-1.3,2.19-1.3,4v13.72h-6.32V42.01
		c0-1.67-0.41-2.97-1.19-3.89s-1.84-1.38-3.16-1.38c-1.3,0-2.35,0.43-3.21,1.27s-1.3,2.19-1.3,4v13.72h-6.27v-24.3h4.27l0.84,2.3
		c1.92-1.97,4.35-2.97,7.24-2.97c3.11,0,5.56,1.22,7.37,3.67C236.96,31.99,239.55,30.78,242.82,30.78z"/>
	<path class="st1" d="M257.7,23.3h6.27v5.59h-6.27V23.3z M257.7,55.76V31.45h6.27v24.31C263.97,55.76,257.7,55.76,257.7,55.76z"/>
	<path class="st1" d="M281.71,31.45v6.27h-3.94v18.01h-6.27V37.72h-3.97v-6.27h3.97v-5.51h6.27v5.51H281.71z"/>
</g>
</svg>
