<?xml version="1.0" encoding="utf-8"?>
<!-- Generator: Adobe Illustrator 26.3.1, SVG Export Plug-In . SVG Version: 6.00 Build 0)  -->
<svg version="1.1" id="Layer_1" xmlns="http://www.w3.org/2000/svg" xmlns:xlink="http://www.w3.org/1999/xlink" x="0px" y="0px"
	 viewBox="0 0 1884 628" style="enable-background:new 0 0 1884 628;" xml:space="preserve">
<style type="text/css">
	.st0{fill:none;stroke:#A6A6A6;stroke-width:15.6989;}
	.st1{fill:#EA4335;}
	.st2{fill:#FBBC04;}
	.st3{fill:#4285F4;}
	.st4{fill:#34A853;}
	.st5{fill:#FFFFFF;}
</style>
<path d="M94.19,7.85h1695.48c47.69,0,86.34,38.66,86.34,86.34v439.57c0,47.69-38.66,86.34-86.34,86.34H94.19
	c-47.69,0-86.34-38.66-86.34-86.34V94.19C7.85,46.51,46.51,7.85,94.19,7.85z"/>
<path class="st0" d="M94.19,7.85h1695.48c47.69,0,86.34,38.66,86.34,86.34v439.57c0,47.69-38.66,86.34-86.34,86.34H94.19
	c-47.69,0-86.34-38.66-86.34-86.34V94.19C7.85,46.51,46.51,7.85,94.19,7.85z"/>
<path class="st1" d="M279.52,305.53L127,471.06c0.01,0.03,0.01,0.07,0.03,0.1c4.68,17.97,20.73,31.2,39.78,31.2
	c7.62,0,14.77-2.11,20.9-5.8l0.49-0.29l171.67-101.3L279.52,305.53z"/>
<path class="st2" d="M433.81,277.34l-0.14-0.1l-74.12-43.93l-83.5,75.98l83.8,85.67l73.72-43.49c12.92-7.15,21.7-21.08,21.7-37.13
	C455.27,298.36,446.62,284.5,433.81,277.34z"/>
<path class="st3" d="M127,156.88c-0.92,3.46-1.4,7.09-1.4,10.84v292.51c0,3.75,0.49,7.38,1.42,10.83l157.75-161.3L127,156.88z"/>
<path class="st4" d="M280.64,313.98l78.93-80.7L188.1,131.61c-6.23-3.82-13.51-6.02-21.29-6.02c-19.05,0-35.12,13.26-39.81,31.25
	c0,0.01-0.02,0.03-0.02,0.04L280.64,313.98z"/>
<path class="st5" d="M684.63,176.84c0,15.7-4.66,28.21-13.97,37.52c-10.47,11.09-24.23,16.64-41.29,16.64
	c-16.33,0-30.14-5.65-41.44-16.96c-11.3-11.3-16.96-25.22-16.96-41.76c0-16.54,5.65-30.46,16.96-41.76
	c11.3-11.3,25.12-16.96,41.44-16.96c8.27,0,16.07,1.47,23.39,4.4c7.33,2.93,13.34,7.07,18.05,12.4l-10.36,10.36
	c-3.45-4.19-7.95-7.43-13.5-9.73c-5.44-2.41-11.3-3.61-17.58-3.61c-12.24,0-22.61,4.24-31.08,12.72
	c-8.37,8.58-12.56,19.31-12.56,32.18c0,12.87,4.19,23.6,12.56,32.18c8.48,8.48,18.84,12.72,31.08,12.72
	c11.2,0,20.51-3.14,27.94-9.42c7.43-6.28,11.72-14.91,12.87-25.9h-40.82v-13.5h54.48C684.37,171.3,684.63,174.12,684.63,176.84z
	 M767.8,116.09v13.82h-51.18v35.64h46.15v13.5h-46.15v35.64h51.18v13.82h-65.62v-112.4H767.8z M825.57,129.9v98.59h-14.44V129.9
	h-31.4v-13.82h77.24v13.82H825.57z M920.98,228.49h-14.44v-112.4h14.44V228.49z M981.95,129.9v98.59h-14.44V129.9h-31.4v-13.82
	h77.24v13.82H981.95z M1169.9,172.29c0,16.64-5.55,30.56-16.64,41.76c-11.2,11.3-24.91,16.96-41.13,16.96
	c-16.33,0-30.04-5.65-41.13-16.96c-11.1-11.2-16.64-25.12-16.64-41.76c0-16.64,5.54-30.56,16.64-41.76
	c11.09-11.3,24.8-16.96,41.13-16.96s30.04,5.7,41.13,17.11C1164.35,141.89,1169.9,155.76,1169.9,172.29z M1069.11,172.29
	c0,12.98,4.09,23.71,12.25,32.18c8.27,8.48,18.52,12.72,30.77,12.72c12.24,0,22.45-4.24,30.61-12.72c8.27-8.37,12.4-19.1,12.4-32.18
	c0-13.08-4.13-23.81-12.4-32.18c-8.16-8.48-18.37-12.72-30.61-12.72c-12.25,0-22.5,4.24-30.77,12.72
	C1073.2,148.59,1069.11,159.31,1069.11,172.29z M1201.39,228.49h-14.44v-112.4h17.58l54.63,87.44h0.63l-0.63-21.66v-65.78h14.44
	v112.4h-15.07l-57.14-91.68h-0.63l0.63,21.66V228.49z"/>
<path class="st5" d="M1468.14,494.71h25.57V321.84h-25.57V494.71z M1698.45,384.11l-29.31,74.95h-0.88l-30.42-74.95h-27.54
	l45.61,104.75l-25.99,58.27h26.65l70.31-163.02H1698.45z M1553.44,475.08c-8.39,0-20.06-4.22-20.06-14.69
	c0-13.33,14.54-18.45,27.1-18.45c11.24,0,16.54,2.45,23.37,5.78C1581.86,463.73,1568.2,475.08,1553.44,475.08z M1556.52,380.34
	c-18.51,0-37.69,8.23-45.62,26.47l22.7,9.56c4.85-9.56,13.88-12.68,23.36-12.68c13.23,0,26.67,8.01,26.89,22.25v1.77
	c-4.63-2.67-14.54-6.67-26.67-6.67c-24.46,0-49.37,13.57-49.37,38.91c0,23.13,20.06,38.04,42.53,38.04
	c17.2,0,26.68-7.79,32.63-16.91h0.88v13.35h24.68v-66.28C1608.53,397.46,1585.83,380.34,1556.52,380.34z M1398.5,405.16h-36.37
	V345.9h36.37c19.11,0,29.96,15.97,29.96,29.62C1428.46,388.92,1417.61,405.16,1398.5,405.16z M1397.84,321.84h-61.27v172.87h25.56
	v-65.49h35.71c28.34,0,56.2-20.71,56.2-53.7S1426.18,321.84,1397.84,321.84z M1063.73,475.1c-17.66,0-32.45-14.92-32.45-35.41
	c0-20.71,14.79-35.87,32.45-35.87c17.45,0,31.12,15.16,31.12,35.87C1094.85,460.18,1081.18,475.1,1063.73,475.1z M1093.1,393.79
	h-0.89c-5.74-6.9-16.77-13.14-30.68-13.14c-29.15,0-55.86,25.83-55.86,59.03c0,32.97,26.71,58.59,55.86,58.59
	c13.91,0,24.94-6.24,30.68-13.37h0.89v8.48c0,22.5-11.92,34.53-31.13,34.53c-15.68,0-25.4-11.37-29.37-20.95l-22.3,9.36
	c6.4,15.6,23.41,34.75,51.67,34.75c30.02,0,55.41-17.83,55.41-61.26V384.21h-24.28V393.79z M1135.05,494.71h25.61V321.83h-25.61
	V494.71z M1198.4,437.68c-0.66-22.72,17.44-34.31,30.46-34.31c10.17,0,18.77,5.12,21.64,12.47L1198.4,437.68z M1277.88,418.07
	c-4.85-13.14-19.65-37.42-49.9-37.42c-30.02,0-54.96,23.83-54.96,58.81c0,32.97,24.72,58.81,57.83,58.81
	c26.72,0,42.18-16.48,48.58-26.07l-19.87-13.37c-6.62,9.8-15.68,16.26-28.71,16.26c-13.02,0-22.3-6.01-28.26-17.81l77.93-32.54
	L1277.88,418.07z M657,398.7v24.95h59.16c-1.77,14.04-6.4,24.28-13.46,31.4c-8.62,8.7-22.09,18.28-45.7,18.28
	c-36.44,0-64.91-29.63-64.91-66.39c0-36.77,28.48-66.39,64.91-66.39c19.65,0,34,7.8,44.59,17.83l17.45-17.6
	c-14.8-14.26-34.44-25.18-62.04-25.18c-49.9,0-91.84,41-91.84,91.35s41.95,91.34,91.84,91.34c26.93,0,47.23-8.92,63.13-25.62
	c16.35-16.48,21.42-39.65,21.42-58.37c0-5.79-0.44-11.13-1.33-15.58H657z M808.82,475.1c-17.66,0-32.9-14.7-32.9-35.63
	c0-21.17,15.24-35.65,32.9-35.65c17.65,0,32.89,14.48,32.89,35.65C841.71,460.4,826.47,475.1,808.82,475.1z M808.82,380.65
	c-32.24,0-58.51,24.73-58.51,58.81c0,33.86,26.27,58.81,58.51,58.81c32.23,0,58.5-24.95,58.5-58.81
	C867.32,405.38,841.05,380.65,808.82,380.65z M936.44,475.1c-17.66,0-32.9-14.7-32.9-35.63c0-21.17,15.24-35.65,32.9-35.65
	s32.89,14.48,32.89,35.65C969.33,460.4,954.11,475.1,936.44,475.1z M936.44,380.65c-32.23,0-58.5,24.73-58.5,58.81
	c0,33.86,26.27,58.81,58.5,58.81c32.23,0,58.5-24.95,58.5-58.81C994.94,405.38,968.67,380.65,936.44,380.65z"/>
</svg>
